<svg width="27" height="38" viewBox="0 0 27 38" fill="none" xmlns="http://www.w3.org/2000/svg">
<path d="M13.5 18.099C12.3278 18.099 11.2037 17.6245 10.3748 16.7798C9.546 15.935 9.08036 14.7894 9.08036 13.5947C9.08036 12.4001 9.546 11.2544 10.3748 10.4097C11.2037 9.56498 12.3278 9.09042 13.5 9.09042C14.6722 9.09042 15.7963 9.56498 16.6252 10.4097C17.454 11.2544 17.9196 12.4001 17.9196 13.5947C17.9196 14.1862 17.8053 14.772 17.5832 15.3185C17.3611 15.8649 17.0356 16.3615 16.6252 16.7798C16.2148 17.198 15.7275 17.5298 15.1913 17.7562C14.6551 17.9825 14.0804 18.099 13.5 18.099ZM13.5 0.982666C10.2179 0.982666 7.07032 2.31143 4.74955 4.67666C2.42879 7.04188 1.125 10.2498 1.125 13.5947C1.125 23.0538 13.5 37.0171 13.5 37.0171C13.5 37.0171 25.875 23.0538 25.875 13.5947C25.875 10.2498 24.5712 7.04188 22.2504 4.67666C19.9297 2.31143 16.7821 0.982666 13.5 0.982666Z" fill="#C446FF"/>
</svg>
