<svg width="20" height="20" viewBox="0 0 20 20" fill="none" xmlns="http://www.w3.org/2000/svg">
<path d="M10 1C6.6875 1 4 3.65643 4 6.92818C4 10.6928 8 16.6586 9.46875 18.7192C9.52972 18.8062 9.60962 18.877 9.70195 18.9258C9.79428 18.9746 9.8964 19 10 19C10.1036 19 10.2057 18.9746 10.2981 18.9258C10.3904 18.877 10.4703 18.8062 10.5313 18.7192C12 16.6595 16 10.6958 16 6.92818C16 3.65643 13.3125 1 10 1Z" stroke="#6343FF" stroke-width="2" stroke-linecap="round" stroke-linejoin="round"/>
<path d="M10 9C11.1046 9 12 8.10457 12 7C12 5.89543 11.1046 5 10 5C8.89543 5 8 5.89543 8 7C8 8.10457 8.89543 9 10 9Z" stroke="#6343FF" stroke-width="2" stroke-linecap="round" stroke-linejoin="round"/>
</svg>
